<?xml version="1.0" encoding="utf-8"?>
<!-- Generator: Adobe Illustrator 25.0.1, SVG Export Plug-In . SVG Version: 6.00 Build 0)  -->
<svg version="1.2" baseProfile="tiny" id="MS_Logo_xA0_Image_1_"
	 xmlns="http://www.w3.org/2000/svg" xmlns:xlink="http://www.w3.org/1999/xlink" x="0px" y="0px" viewBox="0 0 84.24 73.2"
	 overflow="visible" xml:space="preserve">
<g>
	<g>
		<path fill="#FEFEFE" d="M42.09,0.03C55.8,0.03,69.51,0.04,83.22,0c0.91,0,1.02,0.24,1.02,1.06c-0.02,23.7-0.02,47.39,0,71.09
			c0,0.83-0.13,1.05-1.03,1.05c-27.42-0.03-54.84-0.03-82.25,0c-0.85,0-0.96-0.22-0.96-1C0.03,48.47,0.03,24.73,0,0.99
			C0,0.2,0.13,0,0.97,0C14.68,0.04,28.38,0.03,42.09,0.03z"/>
		<path fill="#939393" d="M11.52,54.49C10.31,52.03,9,49.6,8.4,46.88c0.63,0.02,0.63,0.58,0.82,0.97c0.25,0.53,0.51,1.05,0.78,1.57
			c0.68,1.35,1.25,2.76,2.12,4c0.51,0.72,0.98,1.46,1.48,2.19c1.36,2.14,3.13,3.93,4.95,5.68c0.57,0.62,1.17,1.22,1.88,1.68
			c0.3,0.29,0.61,0.56,0.97,0.77c0.33,0.27,0.66,0.54,1.04,0.74c1.88,1.13,3.69,2.39,5.81,3.07c9.33,3.7,18.65,3.66,27.97-0.02
			c2.42-0.74,4.44-2.21,6.51-3.59c1.11-0.8,2.15-1.68,3.16-2.61c0.97-1.01,2.08-1.89,2.89-3.06c0.69-0.77,1.29-1.59,1.89-2.43
			c0.5-0.69,1.08-1.32,1.32-2.17c0.22-0.84,0.92-1.4,1.27-2.16c0.78-1.14,1.1-2.49,1.73-3.71c0.25-0.22,0.43-0.56,0.85-0.46
			c-0.57,2.42-1.65,4.62-2.86,6.76c-0.12,0.21-0.28,0.39-0.27,0.64c0.05,0.53-0.32,0.88-0.57,1.27c-2.4,3.76-5.51,6.85-9.06,9.52
			c-6.76,4.62-14.26,6.82-22.43,6.47c-6.51-0.28-12.62-2.06-18.12-5.69c-0.73-0.48-1.44-0.99-2.19-1.44
			c-3.19-2.6-6.05-5.5-8.23-9.02C11.86,55.45,11.59,55.02,11.52,54.49z"/>
		<path fill="#F9F9F9" d="M20.59,7.2c4.65-3.2,9.71-5.47,15.3-6.39C43-0.37,49.91,0.39,56.6,3.18c4.2,1.75,7.92,4.22,11.14,7.37
			c2.23,2.18,4.2,4.64,5.72,7.41c1.8,2.91,2.95,6.07,3.72,9.38c0.1,0.45,0.14,0.86-0.33,1.14c-0.64,0.02-0.51-0.6-0.75-0.91
			c-0.68-1.48-0.72-3.16-1.52-4.59c-0.41-0.87-0.82-1.75-1.14-2.65c-0.13-0.48-0.43-0.87-0.68-1.28c-0.32-0.68-0.71-1.31-1.14-1.92
			c-0.48-0.76-1.06-1.45-1.61-2.17c-0.28-0.5-0.73-0.88-1.04-1.35c-0.24-0.39-0.58-0.7-0.91-1.02c-0.4-0.41-0.8-0.81-1.22-1.21
			c-0.5-0.5-0.97-1.04-1.58-1.41c-0.48-0.42-0.97-0.84-1.5-1.2c-0.71-0.67-1.55-1.15-2.36-1.67c-0.92-0.6-1.84-1.2-2.86-1.64
			c-0.85-0.48-1.78-0.76-2.66-1.17c-1.11-0.46-2.22-0.93-3.41-1.15c-2.45-0.82-5.02-1.03-7.55-1.44c-1.78-0.22-3.56-0.21-5.34,0
			c-2.63,0.3-5.25,0.65-7.8,1.4c-1.05,0.29-2.08,0.62-3.09,1.03c-1.22,0.5-2.42,1.04-3.59,1.65c-0.82,0.34-1.54,0.84-2.26,1.34
			c-0.59,0.28-1.04,0.86-1.75,0.9C20.75,7.83,20.47,7.63,20.59,7.2z"/>
		<path fill="#FCFCFC" d="M76.76,28.5c0.51-0.91,0.05-1.78-0.17-2.62c-0.63-2.38-1.5-4.67-2.69-6.83c-0.19-0.34-0.3-0.73-0.44-1.1
			c1.37,1.21,1.74,2.96,2.42,4.54c1.22,2.88,2,5.88,2.36,8.98c0.06,0.5,0.38,0.65,0.73,0.83c0,0.73-0.05,1.46,0.31,2.14
			c0.08,0.48,0.08,0.95,0.08,1.43c0,11.25,0,22.51,0,33.76c0,0.24,0,0.48-0.03,0.71c-0.04,0.44,0.03,0.89-0.03,1.34
			c0,0.38-0.07,0.73-0.33,1.02c-0.37-0.27-0.93-0.47-0.47-1.09c0.22-0.3,0.03-0.55-0.1-0.77C77.99,70.23,78,69.57,78,68.88
			c0.01-7.81,0-15.61,0.01-23.42c0-1.03,0.16-2.05,0.22-3.08c0.02-0.37,0.11-0.8-0.28-1.1c-0.56,0.37-0.5,1.08-0.89,1.52
			c-0.56-0.96,0.1-1.95-0.09-2.92c0.36-2.25,0.26-4.5,0.09-6.76c-0.07-1.03-0.37-2.03-0.32-3.07c0.07-0.47,0.22-0.93,0.02-1.41
			C76.76,28.61,76.76,28.55,76.76,28.5z"/>
		<path fill="#F9F9F9" d="M20.35,64.6c1.31,0.81,2.6,1.67,3.94,2.43c7.22,4.05,14.93,5.41,23.13,4.3
			c5.76-0.78,10.93-2.96,15.73-6.15c0.17,0.97-0.63,1.3-1.21,1.68c-1.88,1.25-3.91,2.24-5.95,3.2c-3.35,1.28-6.79,2.08-10.37,2.44
			c-6.39,0.64-12.47-0.41-18.33-2.92c-2.31-0.99-4.42-2.33-6.42-3.83C20.51,65.49,20.04,65.2,20.35,64.6z"/>
		<path fill="#FDFDFD" d="M2.17,72.7c-0.14-0.13-0.42-0.34-0.4-0.39c0.55-1.11-0.37-2.04-0.36-3.12C1.49,59.89,1.46,50.6,1.45,41.3
			c0-0.82,0.3-1.64-0.66-2.32c-0.75-0.53,0.05-1.07,0.47-1.51c0.17,0.02,0.28,0.12,0.37,0.26c0.14,0.29,0.25,0.59,0.38,0.87
			c0.36,0.13,0.71,0.27,0.72,0.75c0.04,0.24,0.06,0.48,0.06,0.72c0,10.15,0.04,20.31-0.02,30.46c-0.03,0.36,0.01,0.72-0.05,1.08
			C2.69,72.05,2.5,72.41,2.17,72.7z"/>
		<path fill="#FCFCFC" d="M5.28,32.3c0.88-0.11,1.12-0.66,1.21-1.48c0.24-2.03,0.56-4.05,1.42-5.93c0.43,0.45,0.21,0.95,0.14,1.46
			c-0.08,0.58-0.31,1.16-0.16,1.76c0,0.43-0.05,0.85-0.1,1.28c-0.41,1.49-0.45,3.03-0.6,4.56c-0.2,0.57-0.14,1.16-0.14,1.75
			c0,0.55,0,1.09,0,1.64c-0.02,0.42,0.03,0.87-0.35,1.18c-0.45-0.7-0.12-1.47-0.22-2.2c-0.06-0.4,0.17-0.88-0.34-1.23
			c-0.7,1.92-0.03,3.83-0.11,5.73c-0.07,1.72,0.14,3.45,0.16,5.17c0.11,7.7,0.04,15.41,0.05,23.12c0,0.73,0.01,1.44-0.68,1.92
			c-0.13-0.1-0.23-0.22-0.29-0.37c-0.17-0.46-0.14-0.94-0.14-1.42c0-11.19,0-22.38,0-33.58c0-0.4,0-0.8,0.06-1.19
			C5.6,33.76,5.56,33.04,5.28,32.3z"/>
		<path fill="#FCFCFC" d="M82.31,38.53c-0.36,0.78,0.26,1.43,0.26,2.19c-0.04,9.59-0.03,19.18-0.02,28.77
			c0,0.64-0.07,1.19-0.68,1.53c-0.21-0.15-0.3-0.36-0.35-0.6c-0.1-0.43-0.08-0.87-0.08-1.31c0-10.63,0-21.27,0-31.9
			c0-0.48,0-0.96,0.07-1.43c0.01-0.15,0.05-0.29,0.11-0.43c0.07-0.14,0.18-0.22,0.33-0.25c0.14,0.05,0.24,0.14,0.3,0.27
			c0.17,0.45,0.12,0.92,0.12,1.38c-0.02,0.25-0.08,0.49-0.07,0.74C82.36,37.85,82.03,38.19,82.31,38.53z"/>
		<path fill="#FBFBFB" d="M55.99,70.07c1.71-1.3,3.8-1.94,5.52-3.22c0.64-0.48,1.29-0.91,1.63-1.66c3.83-2.89,7-6.38,9.57-10.42
			c0.98,0.39,0.39,0.99,0.11,1.41c-1.03,1.51-2.01,3.06-3.22,4.42c-3.6,4.07-7.9,7.22-12.92,9.35
			C56.48,70.03,56.23,70.03,55.99,70.07z"/>
		<path fill="#FBFBFB" d="M20.35,64.6c0.7,1.36,2.02,2.01,3.22,2.77c1.22,0.77,2.48,1.48,3.72,2.22c-1.15-0.13-2.02-0.86-3-1.36
			c-2.78-1.42-5.23-3.32-7.46-5.45c-2.23-2.14-4.13-4.59-5.66-7.3c-0.28-0.5-0.08-0.78,0.36-0.99c1.72,2.61,3.52,5.15,5.78,7.32
			C18.3,62.77,19.34,63.67,20.35,64.6z"/>
		<path fill="#F9F9F9" d="M7.67,28.22c-0.45-0.71,0.03-1.38,0.12-2.05c0.05-0.43,0.12-0.85,0.13-1.29c1.33-4.11,3.25-7.9,6-11.24
			c0.75-0.91,1.34-1.97,2.37-2.63c0.28,0.24,0.37,0.55,0.34,0.91c-0.3,0.71-1.03,1.09-1.38,1.76c-0.32,0.41-0.71,0.76-0.97,1.21
			c-0.22,0.29-0.48,0.55-0.66,0.87c-0.55,0.85-1.21,1.64-1.68,2.54c-0.39,0.59-0.67,1.25-0.97,1.88c-0.44,0.91-0.99,1.77-1.28,2.75
			c-0.3,1.16-0.74,2.28-1.06,3.43C8.25,26.97,8.57,27.91,7.67,28.22z"/>
		<path fill="#F9F9F9" d="M5.28,32.3c0.4,0.51,1.2,0.95,0.28,1.67c-0.11-0.03-0.2-0.08-0.29-0.15c-0.8-0.41-1.62-0.35-2.45-0.08
			c-0.11,0.19-0.1,0.4-0.11,0.61c-0.02,0.29-0.04,0.57-0.21,0.82c-0.14,0.13-0.3,0.16-0.47,0.12c-0.24-0.07-0.21-0.32-0.31-0.48
			c-0.02,0.22-0.02,0.44-0.09,0.65c-0.1,0.26-0.17,0.54-0.45,0.68c-0.56-0.33-0.51-0.88-0.4-1.36c0.34-1.49,1.65-2.46,3.21-2.46
			C4.42,32.3,4.85,32.3,5.28,32.3z"/>
		<path fill="#F9F9F9" d="M82.02,35.17c-0.05,0-0.11,0-0.16,0c-0.1-0.06-0.18-0.14-0.23-0.25c-0.15-0.36-0.07-0.77-0.2-1.13
			c-0.75-0.38-1.49-0.35-2.23,0.04c-0.08,0.07-0.18,0.12-0.28,0.15c-0.89-0.58-0.13-1.12,0.03-1.67c0.44,0,0.88,0,1.31,0
			c1.72,0,2.92,1.18,2.99,2.92c0.01,0.39-0.08,0.71-0.44,0.91c-0.21-0.07-0.31-0.25-0.41-0.43c-0.06-0.13-0.09-0.26-0.1-0.4
			C82.3,35.07,82.18,35.09,82.02,35.17z"/>
		<path fill="#F9F9F9" d="M16.52,11.9c-0.21-0.26-0.26-0.56-0.24-0.88c1.29-1.44,2.79-2.64,4.31-3.82c0.16,0.26,0.33,0.51,0.49,0.77
			c0.02,0.6-0.59,0.71-0.86,1.08c-0.48,0.51-1.1,0.86-1.6,1.35c-0.34,0.32-0.68,0.65-1,0.99c-0.27,0.24-0.5,0.55-0.86,0.68
			C16.65,12.06,16.57,12.01,16.52,11.9z"/>
		<path fill="#FAFAFA" d="M2.17,72.7c0.08-0.33,0.17-0.66,0.25-0.98c1.03-0.5,2.05-0.51,3.07,0.02c0.54,0.81-0.03,0.93-0.63,0.95
			C3.97,72.72,3.07,72.7,2.17,72.7z"/>
		<path fill="#808080" d="M9.82,49.52c-0.73-0.74-0.76-1.86-1.41-2.64c-0.59-1.71-1.01-3.45-1.16-5.25c0.6,0.12,0.61,0.65,0.71,1.08
			c0.31,1.21,0.62,2.42,1.14,3.56c0.37,0.9,0.81,1.79,0.96,2.77C10.04,49.22,9.98,49.4,9.82,49.52z"/>
		<path fill="#939393" d="M5.5,71.73c-1.02-0.01-2.05-0.01-3.07-0.02c0.01-0.32,0.02-0.64,0.04-0.96c1-0.47,2.01-0.47,3.01,0
			c0.03,0.09,0.06,0.18,0.09,0.27C5.54,71.26,5.52,71.5,5.5,71.73z"/>
		<path fill="#939393" d="M81.78,70.52c0.03,0.17,0.06,0.34,0.09,0.51c-0.02,0.23-0.05,0.47-0.07,0.7
			c-0.95,0.57-1.89,0.56-2.84-0.02c0.01-0.4,0.02-0.8,0.03-1.2C79.93,70.38,80.86,70.38,81.78,70.52z"/>
		<path fill="#FAFAFA" d="M78.97,71.71c0.95,0.01,1.89,0.01,2.84,0.02c0.56,0.7,0.05,0.91-0.51,0.95c-0.77,0.06-1.56,0.02-2.34,0.02
			C78.96,72.37,78.96,72.04,78.97,71.71z"/>
		<path fill="#858585" d="M75.84,47.36c-0.25,0.14-0.34,0.51-0.7,0.49c-0.09-0.07-0.16-0.17-0.19-0.28
			c-0.06-0.54,0.21-1.01,0.34-1.51c0.2-0.58,0.37-1.17,0.6-1.74c0.07-0.15,0.15-0.29,0.24-0.43c0.2-0.22,0.2-0.67,0.67-0.59
			C76.71,44.7,76.36,46.05,75.84,47.36z"/>
		<path fill="#6E6E6E" d="M8.88,46.4c-0.66-1.1-0.86-2.35-1.2-3.56c-0.12-0.42-0.16-0.85-0.44-1.21c-0.11-0.89-0.22-1.77-0.34-2.66
			c0.06-0.01,0.12-0.02,0.18-0.03c0.73,0.61,0.39,1.63,0.89,2.34c0.37,1.13,0.48,2.33,0.89,3.45C8.96,45.28,9.36,45.84,8.88,46.4z"
			/>
		<path fill="#707070" d="M76.8,43.29c-0.16,0.24-0.31,0.48-0.47,0.72c-0.27-0.23-0.26-0.54-0.22-0.85
			c0.02-0.12,0.05-0.24,0.09-0.36c0.2-0.68,0.26-1.4,0.48-2.08c0.11-0.32,0.02-0.86,0.64-0.8c-0.08,0.96-0.17,1.92-0.25,2.88
			C76.98,42.98,76.89,43.13,76.8,43.29z"/>
		<path fill="#6A6A6A" d="M82.59,35.59c0.08,0.18,0.16,0.36,0.23,0.53c-0.05,0.41-0.02,0.83-0.26,1.2
			c-0.14,0.09-0.21,0.36-0.47,0.21c0-0.24,0.01-0.48,0.01-0.72C82.34,36.43,82.15,35.89,82.59,35.59z"/>
		<path fill="#5D5D5D" d="M1.17,36.12c0.08-0.26,0.16-0.51,0.23-0.77c0.05,0.03,0.09,0.06,0.14,0.09c0.24,0.43,0.23,0.95,0.51,1.37
			C2.1,36.98,2.09,37.14,2,37.29c-0.48,0.24-0.57-0.17-0.73-0.45C1.24,36.6,1.2,36.36,1.17,36.12z"/>
		<path fill="#6B6B6B" d="M1.27,36.84C1.48,37,1.69,37.16,1.9,37.31c0.09,0.07,0.15,0.16,0.16,0.27C2.05,37.7,2,37.79,1.92,37.87
			c-0.17,0.07-0.32,0.06-0.44-0.09c-0.07-0.1-0.15-0.21-0.22-0.31C1.26,37.26,1.27,37.05,1.27,36.84z"/>
		<path fill="#949494" d="M82.1,37.54c0.16-0.07,0.31-0.14,0.47-0.21c0.1,0.44-0.23,0.79-0.26,1.21
			C81.9,38.28,82.1,37.89,82.1,37.54z"/>
		<path fill="#F9F9F9" d="M6.7,38.52c0.02-0.42,0.04-0.85,0.06-1.27c0.76,0.5,0.59,1.12,0.24,1.77c0,0-0.09-0.05-0.09-0.05
			C6.84,38.82,6.77,38.67,6.7,38.52z"/>
		<path fill="#333333" d="M56.48,67.69c-3.27,1.55-6.74,2.42-10.31,2.76c-6.1,0.57-12.07-0.09-17.77-2.49
			c-0.14-0.06-0.27-0.17-0.4-0.25c-1.98-0.92-3.9-1.96-5.7-3.22c-0.33-0.09-0.55-0.33-0.79-0.56c-0.32-0.27-0.75-0.4-1-0.76
			c-0.69-0.51-1.37-1.03-1.93-1.69c-1.98-1.87-3.84-3.84-5.28-6.17c-0.52-0.6-0.84-1.33-1.3-1.97c-0.62-1.38-1.43-2.67-1.91-4.12
			c-0.27-1.09-0.91-2.07-0.98-3.23c-0.28-2.04-0.98-4-1.13-6.06c-0.11-1.58-0.4-3.14-0.4-4.72c0.01-0.48-0.03-0.96,0.14-1.42
			c0.51-1.07,0.49-2.22,0.58-3.36c0.13-1.14,0.53-2.22,0.73-3.34c0.11-0.61,0.35-1.17,0.52-1.76c0.38-0.86,0.43-1.85,0.99-2.65
			c0.57-0.91,1.05-1.86,1.43-2.86c0.35-0.95,0.98-1.74,1.48-2.6c0.25-0.42,0.51-0.83,0.78-1.24c0.64-0.93,1.47-1.7,2.14-2.61
			c0.51-0.63,1.12-1.16,1.67-1.74c0.35-0.33,0.68-0.68,1.03-1.01c0.79-0.63,1.65-1.19,2.31-1.98c0.08-0.08,0.16-0.15,0.26-0.21
			c1.58-0.83,3.02-1.91,4.68-2.61c0.11-0.05,0.22-0.08,0.34-0.11c1.86-0.73,3.7-1.52,5.58-2.19c4.35-1.3,8.77-1.74,13.29-1.26
			c0.95,0.1,1.9,0.16,2.83,0.35c2.47,0.59,4.97,1.09,7.32,2.12c0.11,0.03,0.22,0.08,0.33,0.13c0.31,0.16,0.6,0.34,0.89,0.52
			c3.55,1.74,6.79,3.92,9.64,6.65c0.23,0.17,0.43,0.37,0.6,0.6c0.51,0.8,1.26,1.38,1.9,2.06c0.23,0.24,0.44,0.49,0.58,0.8
			c0.47,0.83,1,1.62,1.66,2.3c0.47,0.56,0.81,1.19,1.18,1.81c0.4,0.88,0.91,1.72,1.27,2.62c0.25,0.91,0.71,1.74,0.95,2.65
			c0.15,0.83,0.51,1.6,0.74,2.41c0.2,0.95,0.46,1.9,0.51,2.87c0.23-0.15-0.17-0.7,0.29-0.68c0.39,0.01,0.38,0.45,0.41,0.75
			c0.05,0.59,0.02,1.19,0.21,1.76c0.41,4.56-0.02,9.05-1.25,13.46c-0.7,1.92-1.15,3.92-2.09,5.76C73,52.15,72.17,52.9,72,54
			c-0.25,0.59-0.64,1.08-1,1.6c-0.85,0.86-1.41,1.93-2.21,2.82c-0.74,1.11-1.82,1.9-2.71,2.87c-1.18,1-2.31,2.07-3.6,2.93
			C60.62,65.62,58.6,66.74,56.48,67.69z"/>
		<path fill="#464646" d="M71.78,54.05c0.19-1.13,1-1.97,1.46-2.97c0.82-1.76,1.29-3.65,2.11-5.41c0.19,0.11,0.08,0.35,0.21,0.48
			c-0.15,0.48-0.31,0.95-0.46,1.43c-0.42,1.41-1.04,2.75-1.66,4.08c-0.22,0.82-1.05,1.29-1.21,2.15
			C72.12,53.96,72.06,54.2,71.78,54.05z"/>
		<path fill="#4A4A4A" d="M13.42,55.24c1.53,2.26,3.38,4.25,5.27,6.21c-0.09,0.1-0.19,0.1-0.29,0.02c-1.92-1.69-3.67-3.53-4.98-5.76
			C13.28,55.56,13.28,55.4,13.42,55.24z"/>
		<path fill="#535353" d="M56.48,67.69c1.97-1.24,4.11-2.19,5.97-3.6c0.15-0.14,0.3-0.14,0.46-0.01
			C60.93,65.58,58.89,66.96,56.48,67.69z"/>
		<path fill="#4A4A4A" d="M22.27,64.33c1.91,1.12,3.82,2.25,5.73,3.38c-2.13-0.64-3.97-1.81-5.74-3.11
			C22.13,64.5,22.13,64.41,22.27,64.33z"/>
		<path fill="#4A4A4A" d="M62.91,64.08c-0.15,0-0.3,0.01-0.46,0.01c1.19-0.96,2.39-1.92,3.58-2.88c0.08,0.06,0.11,0.11,0.08,0.17
			c-0.02,0.06-0.05,0.09-0.07,0.09C65.12,62.49,64.07,63.35,62.91,64.08z"/>
		<path fill="#747474" d="M9.82,49.52c0-0.16,0.01-0.32,0.01-0.49c0.56-0.07,0.33,0.5,0.56,0.7c0.5,1.21,1.2,2.33,1.7,3.54
			c0.01,0.12-0.03,0.22-0.11,0.31C10.96,52.38,10.41,50.94,9.82,49.52z"/>
		<path fill="#474747" d="M68.67,58.35c0.71-0.96,1.29-2.02,2.16-2.86c0.14,0.16,0.12,0.32,0,0.48c-0.53,0.88-1.09,1.73-1.88,2.4
			C68.85,58.49,68.75,58.49,68.67,58.35z"/>
		<path fill="#515151" d="M68.67,58.35c0.09,0.01,0.19,0.01,0.28,0.02c-0.73,1.26-1.83,2.17-2.9,3.1c0-0.09-0.01-0.18-0.01-0.27
			C66.91,60.26,67.79,59.31,68.67,58.35z"/>
		<path fill="#6E6E6E" d="M73.45,51.66c0.39-1.43,1.02-2.75,1.66-4.08c0.01,0.09,0.03,0.18,0.04,0.27
			C74.73,49.18,74.35,50.53,73.45,51.66z"/>
		<path fill="#4F4F4F" d="M11.97,53.58c0.01-0.08,0.02-0.17,0.03-0.25c0.08-0.11,0.15-0.11,0.23,0c0.4,0.64,0.79,1.28,1.19,1.92
			c0,0.16,0,0.32,0,0.48C12.82,55.09,12.4,54.33,11.97,53.58z"/>
		<path fill="#4B4B4B" d="M18.39,61.48c0.1-0.01,0.19-0.01,0.29-0.02c0.64,0.56,1.28,1.11,1.92,1.67c-0.09,0.1-0.18,0.11-0.29,0.02
			C19.54,62.75,18.94,62.15,18.39,61.48z"/>
		<path fill="#626262" d="M70.83,55.97c0-0.16,0-0.32,0-0.48c0.32-0.48,0.63-0.96,0.95-1.44c0.15-0.08,0.3-0.17,0.45-0.25
			C71.99,54.67,71.45,55.35,70.83,55.97z"/>
		<path fill="#4C4C4C" d="M20.32,63.15c0.1-0.01,0.19-0.01,0.29-0.02c0.32,0.24,0.63,0.48,0.95,0.72c-0.09,0.1-0.19,0.11-0.29,0.03
			C20.83,63.79,20.56,63.49,20.32,63.15z"/>
		<path fill="#525252" d="M21.26,63.88c0.1-0.01,0.19-0.02,0.29-0.03c0.24,0.16,0.48,0.32,0.71,0.48c0,0.09-0.01,0.18-0.01,0.27
			C21.81,64.52,21.52,64.22,21.26,63.88z"/>
		<path fill="#8E8E8E" d="M44.97,1.41c2.58,0.39,5.21,0.53,7.66,1.53c0.01,0.35-0.26,0.39-0.51,0.46c-0.69,0.09-1.32-0.31-2.01-0.27
			C49.89,3.1,49.66,3,49.42,3.01c-0.22-0.06-0.44-0.11-0.65-0.2c-0.35-0.24-0.76-0.11-1.14-0.17c-0.17-0.03-0.33-0.1-0.5-0.13
			c-0.52-0.16-1.07-0.02-1.6-0.13c-0.12-0.04-0.24-0.09-0.35-0.15c-1.99-0.06-3.98-0.13-5.96,0.04c-0.11,0.06-0.23,0.11-0.36,0.13
			c-0.67,0.09-1.36-0.1-2.01,0.15c-0.11,0.05-0.23,0.08-0.35,0.09c-0.37,0.02-0.74,0-1.09,0.11c-0.84,0.16-1.68,0.33-2.52,0.5
			c-0.48,0.09-0.93,0.13-1.25-0.34c2.55-0.94,5.23-1.17,7.9-1.5C41.33,1.31,43.15,1.3,44.97,1.41z"/>
		<path fill="#494949" d="M75.57,46.15c-0.07-0.16-0.14-0.32-0.21-0.48c1.08-4.56,1.49-9.18,1.2-13.85c-0.28-1.08,0.09-2.24-0.5-3.3
			c-0.17-0.31-0.06-0.77,0.29-1.06c0.14,0.35,0.27,0.69,0.41,1.04c0,0,0-0.01,0-0.01c0.38,0.36,0.13,0.84,0.25,1.25
			c0.1,1.08,0.2,2.16,0.3,3.24c0.13,2.17,0.09,4.35-0.25,6.5c-0.19,1.2-0.43,2.4-0.73,3.58l0,0c-0.29,0.36,0.04,0.84-0.23,1.2
			C76.1,44.94,75.72,45.51,75.57,46.15z"/>
		<path fill="#3A3A3A" d="M76.35,27.46c-0.03,1.46,0.37,2.89,0.21,4.36c-0.54-0.65-0.04-1.45-0.32-2.15c-0.35,0.25,0,0.69-0.29,0.98
			c-0.4-1.1-0.69-2.22-0.83-3.37c0.41-0.01,0.21-0.24,0.16-0.43c-0.12-0.4-0.28-0.79-0.39-1.2c-0.15-0.61-0.36-1.21-0.45-1.84
			c-0.06-0.39-0.22-0.89,0.39-1.07C75.54,24.25,75.79,25.91,76.35,27.46z"/>
		<path fill="#848484" d="M24.9,5.59c1.13-0.71,2.36-1.19,3.58-1.67c0.57,0.2,1.04-0.18,1.56-0.27c0.44-0.08,0.88-0.34,1.34-0.06
			c0.05,0.11,0.05,0.22,0,0.34c-1.04,0.57-2.2,0.85-3.29,1.3c-0.83,0.26-1.68,0.49-2.45,0.93c-0.12,0.04-0.24,0.06-0.36,0.05
			C24.98,6.12,24.66,6.03,24.9,5.59z"/>
		<path fill="#8E8E8E" d="M31.36,3.62c-0.68,0.18-1.37,0.35-2.05,0.56c-0.36,0.11-0.7,0.29-0.83-0.26c1.02-0.41,2.04-0.82,3.13-1.01
			c1.33,0.31,2.54-0.29,3.81-0.48c0.08,0.12,0.08,0.24-0.01,0.36C34.08,3.12,32.79,3.71,31.36,3.62z"/>
		<path fill="#424242" d="M74.83,22.75c-0.52,1.09,0.46,2.04,0.3,3.09c-0.64-0.02-0.43-0.67-0.72-0.96
			c-0.32-0.88-0.64-1.75-0.96-2.63c0.34-0.42-0.05-0.79-0.09-1.19c-0.03-0.34-0.33-0.76,0.25-0.94C74.02,21,74.43,21.88,74.83,22.75
			z"/>
		<path fill="#7A7A7A" d="M61.51,6.95c0.87,0.46,1.73,0.92,2.4,1.67c-0.44,0.73-0.87,0.27-1.31,0c-0.53-0.39-1.05-0.8-1.71-0.95
			c-1.25-0.69-2.52-1.34-3.74-2.09c-0.04-0.12-0.03-0.23,0.03-0.34c0.36-0.21,0.67-0.04,1,0.09C59.3,5.84,60.3,6.61,61.51,6.95z"/>
		<path fill="#878787" d="M58.15,5.53c-0.32-0.08-0.64-0.15-0.97-0.23c-0.46,0.25-0.79-0.18-1.19-0.24l0,0
			c-0.67-0.34-1.37-0.61-2.08-0.84c-0.29-0.09-0.43-0.2-0.18-0.48c0.83-0.38,1.49,0.33,2.26,0.35c0.91,0.32,1.84,0.6,2.63,1.2
			C58.53,5.5,58.42,5.67,58.15,5.53z"/>
		<path fill="#5A5A5A" d="M69.39,15.56c-0.16-0.24-0.32-0.48-0.48-0.71c-0.07-0.05-0.1-0.11-0.08-0.17c0.01-0.06,0.03-0.1,0.05-0.1
			c0.37-0.11,0.62,0.12,0.82,0.35c0.26,0.29,0.3-0.01,0.41-0.11c0.73,0.59,1.19,1.39,1.65,2.18c0,0.54-0.11,0.95-0.79,0.64
			C70.41,16.98,69.98,16.21,69.39,15.56z"/>
		<path fill="#515151" d="M71.06,17.48c0.57,0.35,0.42-0.39,0.71-0.48c0.48,0.58,0.89,1.21,1.16,1.92c0,0.99-0.06,1.05-0.67,0.71
			c-0.4-0.56-0.79-1.12-1.19-1.68C70.93,17.8,70.92,17.64,71.06,17.48z"/>
		<path fill="#4C4C4C" d="M72.25,19.63c0.82,0.33,0.28-0.63,0.67-0.71c0.23,0.4,0.46,0.8,0.69,1.21c-0.35,0.59,0.19,1.03,0.25,1.55
			c0.03,0.29,0.32,0.81-0.41,0.58C73.08,21.37,72.48,20.59,72.25,19.63z"/>
		<path fill="#656565" d="M66.99,12.7c-0.16-0.16-0.32-0.32-0.48-0.48c-0.37-0.38-1.01-0.55-0.95-1.25c0.46-0.22,0.75,0.1,1.05,0.35
			c0.33,0.33,0.79,0.61,0.95,1.02c0.21,0.54,0.42,0.11,0.63,0.11c0.38,0.24,0.68,0.57,0.88,0.98c0.04,0.39,0.35,0.92-0.46,0.86
			C67.95,13.88,67.47,13.29,66.99,12.7z"/>
		<path fill="#7B7B7B" d="M20.11,8.87c0.33-0.3,0.65-0.6,0.98-0.9c0.55-0.36,0.99-0.9,1.69-0.99c0.33-0.27,0.54-0.08,0.74,0.19
			c-0.37,0.87-1.32,0.98-1.96,1.49l0.01,0c-0.26,0.29-0.51,0.6-0.95,0.61C20.37,9.23,20.19,9.12,20.11,8.87z"/>
		<path fill="#828282" d="M58.15,5.53c0.16-0.08,0.32-0.16,0.48-0.24c1.06,0.38,2.03,0.93,2.89,1.66
			C60.1,7.16,59.25,6.06,58.15,5.53z"/>
		<path fill="#747474" d="M62.69,8.39c0.38,0.22,0.72,0.65,1.22,0.23c0.54,0.32,1.08,0.62,1.42,1.18c-0.03,0.65-0.03,0.65-1.01,0.28
			c-0.74-0.45-1.57-0.79-1.92-1.68C62.49,8.28,62.59,8.28,62.69,8.39z"/>
		<path fill="#6E6E6E" d="M64.35,9.84c0.32-0.34,0.69,0.85,0.98-0.04c0.72,0.3,1.2,0.87,1.66,1.46c-0.09,0.22-0.22,0.36-0.48,0.24
			c-0.33-0.13-0.53-0.51-0.95-0.48C64.92,10.88,64.48,10.51,64.35,9.84z"/>
		<path fill="#8D8D8D" d="M55.99,4.09c-0.8-0.08-1.6-0.16-2.39-0.24c-0.05,0-0.11,0-0.16-0.01c-0.44-0.2-1.11-0.01-1.27-0.71
			c0.16-0.07,0.31-0.13,0.47-0.2C53.84,3.08,54.93,3.54,55.99,4.09z"/>
		<path fill="#818181" d="M23.46,7.2c-0.23-0.08-0.45-0.15-0.68-0.23c0.53-0.74,1.34-1.04,2.12-1.39C24.92,5.89,25.1,6,25.38,6
			C24.98,6.79,24.23,7,23.46,7.2z"/>
		<path fill="#5F5F5F" d="M68.67,14.13c0.62,0.04,0.1-0.56,0.4-0.7c0.35,0.46,0.92,0.75,1.05,1.39c0.05,0.26,0.1,0.51,0.18,0.93
			c-0.53-0.44-0.95-0.79-1.38-1.14C68.73,14.5,68.54,14.4,68.67,14.13z"/>
		<path fill="#F9F9F9" d="M44.97,1.41c-1.82,0-3.64,0-5.46-0.01C41.33,1.11,43.15,1.09,44.97,1.41z"/>
		<path fill="#6A6A6A" d="M66.52,11.5c0.16-0.08,0.32-0.16,0.48-0.24c0.49,0.31,0.87,0.73,1.2,1.2c-0.27,0.33-0.52,0.41-0.82,0.02
			C67.11,12.14,66.8,11.83,66.52,11.5z"/>
		<path fill="#393939" d="M81.78,70.52c-0.93,0.33-1.86,0.33-2.79,0c0-11.67,0-23.33-0.01-35c0-0.52-0.04-1.03-0.06-1.55
			c0.03-0.07,0.05-0.14,0.06-0.22c0.95,0.12,1.89,0.13,2.8-0.23c0,0.47,0,0.93,0,1.4c-1.45,0.08-1.49,0.09-1.49,1.34
			c-0.01,10.91-0.01,21.81,0,32.72c0,0.16,0,0.32,0.08,0.5c0.22-0.47,0.11-0.95,0.11-1.41c0.01-10.07,0.01-20.14,0.01-30.21
			c0-0.52-0.01-1.03,0.04-1.55c0.08-0.78,0.41-1.2,1.26-0.9c0,7.24,0.01,14.49,0.01,21.73C81.79,61.6,81.79,66.06,81.78,70.52z"/>
		<path fill="#686868" d="M76.32,43.05c0.3-2.69,0.61-5.38,0.9-8.07c0.07-0.66,0.06-1.34,0.09-2.01c0.37,2.32,0.32,4.64,0.01,6.96
			C76.63,40.86,76.97,42.12,76.32,43.05z"/>
		<path fill="#F9F9F9" d="M77.01,29.74c-0.25-0.38-0.23-0.82-0.25-1.25C77.3,28.81,77.3,29.25,77.01,29.74z"/>
		<path fill="#494949" d="M5.47,70.76c-1,0-2.01,0-3.01,0C2.45,60.49,2.44,50.22,2.43,39.95c0-0.4-0.02-0.79-0.04-1.19
			c-0.37-0.36-0.22-0.82-0.22-1.25c0.08-0.78-0.35-1.6,0.2-2.34c0.03-0.32,0.05-0.64,0.08-0.96c0.28-0.15,0.61-0.14,0.91-0.23
			c0.72,0,1.42-0.26,2.14-0.23c0.01,0.08,0.04,0.15,0.06,0.22C5.54,34.49,5.5,35,5.5,35.52C5.49,47.27,5.48,59.01,5.47,70.76z"/>
		<path fill="#FEFEFE" d="M2.38,37.56c0.01,0.4,0.01,0.8,0.02,1.2c-0.21,0.07-0.21,0.43-0.49,0.35c-0.03-0.01,0.01-0.26,0.02-0.4
			C1.77,38.4,1.7,38.09,1.9,37.78c0.01-0.08,0.03-0.15,0.07-0.22C2.11,37.42,2.24,37.42,2.38,37.56z"/>
		<path fill="#9E9E9E" d="M1.9,37.78c0.01,0.31,0.01,0.62,0.02,0.93c-0.34-0.22-0.45-0.54-0.44-0.93
			C1.62,37.78,1.76,37.78,1.9,37.78z"/>
		<path fill="#4E4E4E" d="M8.63,44.74c-0.6-1.04-0.49-2.28-0.94-3.36c-0.4-1.89-0.53-3.83-0.84-5.73c0.03-0.56-0.09-1.12,0.07-1.67
			c0.2-1.6-0.02-3.27,0.76-4.77c0.65,1.32,0.3,2.71,0.25,4.07c-0.02,0.58-0.13,1.17-0.14,1.76c0,3.08,0.39,6.11,1.06,9.12
			C8.85,44.38,8.81,44.58,8.63,44.74z"/>
		<path fill="#3F3F3F" d="M7.68,35.17c0-1.99,0-3.97,0.01-5.96c-0.29-0.32,0.04-0.66-0.01-0.98c0.23-0.65,0.47-1.29,0.7-1.94
			c0.76,0.84,0.09,1.75,0.11,2.63c-0.31,1.59-0.1,3.25-0.58,4.82c0,0.48,0,0.96,0,1.43C7.83,35.28,7.76,35.27,7.68,35.17z"/>
		<path fill="#6B6B6B" d="M6.94,35.62c0.56,1.88,0.57,3.83,0.74,5.76C7.19,40.67,7.42,39.75,7,39.01c-0.19-0.58,0.08-1.21-0.24-1.77
			c0-0.51-0.01-1.01-0.01-1.52C6.76,35.61,6.83,35.57,6.94,35.62z"/>
		<path fill="#F9F9F9" d="M6.94,35.62c-0.07,0.03-0.13,0.07-0.19,0.11c0.03-0.59-0.22-1.2,0.17-1.75
			C6.93,34.53,6.93,35.07,6.94,35.62z"/>
		<path fill="#383838" d="M81.79,35.41c-1.2,0.06-0.91,0.96-0.91,1.67c-0.01,10.62,0,21.24,0,31.86c0,0.32,0,0.64,0,0.95
			c0,0.35-0.09,0.65-0.53,0.61c-0.37-0.03-0.41-0.32-0.42-0.61c-0.01-0.28-0.01-0.56-0.01-0.84c0-11.06,0-22.12,0.01-33.18
			c0-0.47-0.31-1.11,0.33-1.38c0.56-0.24,1.08,0.02,1.52,0.41c0.03,0.08,0.05,0.16,0.08,0.25C81.84,35.25,81.81,35.33,81.79,35.41z"
			/>
		<path fill="#3A3A3A" d="M82.59,35.59c-0.08,0.44-0.09,0.91-0.48,1.23c0-0.47,0-0.94,0-1.41c0.07-0.18,0.19-0.29,0.4-0.23
			C82.53,35.31,82.56,35.45,82.59,35.59z"/>
		<path fill="#4A4A4A" d="M82.5,35.18c-0.13,0.08-0.27,0.15-0.4,0.23c-0.03-0.08-0.05-0.16-0.08-0.24c0.03-0.22,0.06-0.44,0.1-0.69
			C82.41,34.65,82.47,34.91,82.5,35.18z"/>
		<path fill="#373737" d="M8.15,28.71c0.09-0.81,0.4-1.6,0.22-2.43c0.11-1.25,0.81-2.32,1.02-3.54c0.17-0.13,0.34-0.14,0.51,0
			c0.34,0.88-0.3,1.64-0.32,2.47c-0.2,0.53-0.24,1.12-0.48,1.65c-0.14,0.31,0.22,0.05,0.25,0.18c-0.24,1.12-0.48,2.23-0.72,3.35
			c-0.34,0.04-0.34-0.2-0.36-0.44C8.23,29.54,8.4,29.11,8.15,28.71z"/>
		<path fill="#4E4E4E" d="M13.66,17.24c-0.48,0.88-0.96,1.75-1.44,2.63c-0.56,0.84-0.93,1.79-1.4,2.68
			c-0.37,0.35-0.6,0.28-0.69-0.22c0.01-0.8,0.59-1.43,0.65-2.22c0.16-0.71,0.59-1.29,0.97-1.89c0.32,0.05,0.34,0.38,0.48,0.52
			C12.56,18.1,12.68,17.28,13.66,17.24z"/>
		<path fill="#555555" d="M13.66,17.24c-0.74,0.37-0.92,1.22-1.51,1.82c-0.15-0.32-0.27-0.58-0.4-0.85c0.49-0.93,1.06-1.8,1.71-2.63
			c0.08-0.02,0.18-0.02,0.2,0.04c0.25,0.53,0.28,0.54,0.72,0.43C14.32,16.55,13.97,16.88,13.66,17.24z"/>
		<path fill="#5B5B5B" d="M14.38,16.05c-0.27,0.19-0.54,0.38-0.83,0.59c-0.18-0.36,0.35-0.75-0.09-1.06
			c0.05-0.42,0.43-0.51,0.69-0.72c0.19-0.11,0.48,0.51,0.64-0.11c0.07-0.28,0.36-0.5,0.54-0.76c0.24-0.32,0.48-0.64,0.91-0.7
			c0.12,0.01,0.22,0.06,0.3,0.14C16.04,14.47,15.15,15.2,14.38,16.05z"/>
		<path fill="#666666" d="M16.28,13.41c-0.32,0.16-0.56,0.4-0.72,0.72c-0.41,0.1-0.42-0.19-0.45-0.46c0.14-0.85,0.9-1.2,1.4-1.76
			c0.07,0.01,0.14,0.01,0.21-0.01c0.22,0.11,0.31,0.31,0.37,0.54C17.06,12.95,16.62,13.13,16.28,13.41z"/>
		<path fill="#3F3F3F" d="M10.77,20.1c0.3,0.82-0.28,1.45-0.47,2.16c-0.21,0.11-0.02,0.62-0.48,0.48c-0.14,0-0.29,0-0.43,0
			C9.85,21.86,10.31,20.98,10.77,20.1z"/>
		<path fill="#5F5F5F" d="M15.12,13.67c0.15,0.15,0.3,0.31,0.45,0.46c-0.4,0.53-0.79,1.05-1.19,1.58c-0.37-0.27,0.2-0.66-0.22-0.85
			C14.16,14.21,14.68,13.96,15.12,13.67z"/>
		<path fill="#868686" d="M5.5,33.75c-0.7,0.59-1.53,0.47-2.34,0.43c-0.43-0.01-0.54-0.36-0.71-0.65c0.96-0.54,1.97-0.17,2.96-0.18
			C5.44,33.34,5.47,33.61,5.5,33.75z"/>
		<path fill="#FDFDFD" d="M2.38,37.56c-0.14,0-0.27,0-0.41,0c-0.02-0.08-0.05-0.16-0.07-0.24c0-0.16,0-0.33,0-0.49
			c-0.16-0.3-0.21-0.62-0.2-0.95c0.01-0.27,0.01-0.54,0.27-0.71c0.13,0,0.26,0,0.4,0C2.37,35.96,2.38,36.76,2.38,37.56z"/>
		<path fill="#5D5D5D" d="M1.97,35.17c-0.03,0.24-0.05,0.48-0.08,0.72c-0.34,0.07-0.28-0.24-0.38-0.39
			c-0.04-0.05-0.08-0.09-0.12-0.14c0-0.37,0.18-0.67,0.44-1.13C1.9,34.66,1.94,34.91,1.97,35.17z"/>
		<path fill="#373737" d="M2.45,33.52c0.24,0.22,0.47,0.43,0.71,0.65c-0.22,0.4-0.47,0.15-0.71,0.04
			C2.45,33.98,2.45,33.75,2.45,33.52z"/>
		<path fill="#888888" d="M81.79,33.53c-0.86,0.97-1.81,0.81-2.8,0.23c0.02-0.14,0.05-0.41,0.07-0.41
			C79.97,33.35,80.91,32.96,81.79,33.53z"/>
		<path fill="#717171" d="M20.11,8.87c0.16,0.08,0.32,0.16,0.48,0.24c-0.18,0.89-0.99,1.12-1.62,1.54
			c-0.24-0.03-0.44-0.13-0.57-0.35C18.88,9.71,19.48,9.28,20.11,8.87z"/>
		<path fill="#707070" d="M18.4,10.29c0.21,0.01,0.4,0.04,0.51,0.25c0.06,0.05,0.09,0.11,0.09,0.17c-0.01,0.07-0.02,0.1-0.04,0.1
			c-0.29,0.32-0.58,0.64-0.95,0.87c-0.15,0.09-0.3,0.15-0.47,0.09c-0.24-0.17-0.17-0.39-0.09-0.61
			C17.77,10.88,18.09,10.59,18.4,10.29z"/>
		<path fill="#696969" d="M17.46,11.18c0.02,0.22,0.05,0.44,0.27,0.56c0.01,0.49-0.23,0.73-0.72,0.72
			c-0.22-0.13-0.24-0.34-0.27-0.56C16.98,11.65,17.22,11.42,17.46,11.18z"/>
		<path fill="#494949" d="M8.63,44.74c0-0.17,0.01-0.33,0.01-0.5c0.79,0.43,0.36,1.32,0.71,1.92c0.08,1.11,0.68,2.06,0.96,3.1
			c0.13,0.17,0.13,0.33-0.01,0.49c-0.16-0.24-0.32-0.48-0.48-0.72c-0.32-0.88-0.63-1.76-0.95-2.64C8.79,45.85,8.71,45.29,8.63,44.74
			z"/>
		<path fill="#686868" d="M76.09,44.25c0.04-0.41-0.15-0.86,0.23-1.2c0,0.32,0,0.64,0.01,0.96C76.25,44.1,76.17,44.17,76.09,44.25z"
			/>
		<path fill="#383838" d="M1.52,35.49c0.13,0.13,0.25,0.26,0.38,0.39c0,0.31,0,0.63,0,0.94C1.3,36.52,1.45,35.99,1.52,35.49z"/>
		<path fill="#FE8800" d="M43.36,60.74c-0.16,0.86-0.35,1.71-0.48,2.58c-0.07,0.48-0.3,0.73-0.76,0.73c-0.45,0-0.7-0.25-0.77-0.73
			c-0.12-0.86-0.3-1.72-0.46-2.58c-0.14-0.29-0.28-0.57-0.28-0.9c0.11-0.96-0.39-1.32-1.29-1.44c-3.52-0.47-6.78-1.61-9.61-3.82
			c-0.33-0.29-0.64-0.63-1.06-0.81c-0.15-0.08-0.28-0.19-0.39-0.32c-1.62-1.7-3.31-3.34-4.56-5.35c-0.89-1.83-1.84-3.64-2.56-5.55
			c-0.2-0.53-0.66-0.87-1.04-1.26c-0.06-0.09-0.1-0.19-0.11-0.3c0.07-0.36,0.58-0.74-0.06-1.07l-0.08,0.03
			c-0.2-0.18-0.22-0.42-0.23-0.67c0.01-0.18,0.05-0.35,0.13-0.51c0.88-1.01,0.88-1.02-0.13-1.87c-0.06-0.1-0.06-0.2-0.01-0.31
			c0-0.17,0-0.33,0-0.5c0.03-0.04,0.07-0.08,0.1-0.13c0.79-0.51,0.69-1.04,0.04-1.58c-0.11-0.22-0.15-0.45-0.15-0.7
			c0-0.26,0.1-0.49,0.25-0.7l0.08,0.02c0.39-0.32,0.1-0.68,0.05-1.03c0.01-0.11,0.05-0.22,0.11-0.31c0.88-0.6,1.15-1.6,1.53-2.49
			c0.73-1.76,1.66-3.41,2.57-5.08c1.56-2.2,3.44-4.08,5.57-5.72c3.08-2.33,6.6-3.51,10.39-3.82c4.97-0.41,9.66,0.58,13.92,3.29
			c0.34,0.21,0.67,0.42,0.96,0.71c0.43,0.45,0.83,0.94,1.36,1.28c0.09,0.06,0.18,0.13,0.27,0.2c0.24,0.22,0.47,0.45,0.71,0.67
			c0.41,0.43,0.87,0.83,1.23,1.31c1.03,1.39,2.15,2.73,2.9,4.32c0.72,1.48,1.37,2.99,1.95,4.52c0.19,0.51,0.49,0.87,0.96,1.12
			c0.12,0.13,0.18,0.29,0.2,0.46c0.18,0.4-0.68,0.83,0.04,1.22c0.07,0.09,0.08,0.2,0.06,0.31c-0.6,0.47-0.06,0.82,0.13,1.2
			c0.1,0.84,0.1,1.68,0.04,2.52c-0.09,0.4-0.63,0.74-0.19,1.23c0.01,0.05,0.02,0.1,0.03,0.15c-0.01,0.11-0.06,0.2-0.15,0.28
			c-0.8,0.36-0.02,0.75-0.02,1.12c0.02,0.17-0.02,0.33-0.12,0.48c-0.61,0.37-0.95,0.93-1.18,1.58c-0.52,1.42-1.09,2.82-1.82,4.14
			c-0.82,1.37-1.57,2.79-2.61,4.02c-0.16,0.22-0.35,0.42-0.54,0.61c-0.5,0.48-0.99,0.97-1.47,1.47c-0.44,0.42-0.85,0.88-1.31,1.29
			c-3.09,2.56-6.75,3.74-10.65,4.32c-0.71,0.11-1.26,0.25-1.09,1.15C43.83,60,43.53,60.35,43.36,60.74z"/>
		<path fill="#3E3E3D" d="M40.68,12.46c1.65-0.61,3.27-0.11,4.88,0.17c2.45,0.43,4.83,1.12,7.08,2.22c0.55,0.42,1.1,0.85,1.78,1.06
			c1.92,1.21,3.66,2.62,5.03,4.46c-0.09,0.87-0.53,0.44-0.85,0.21c-0.54-0.39-0.91-1.01-1.59-1.21c-1.48-0.84-2.75-1.98-4.25-2.81
			c-2.74-1.52-5.7-2.33-8.78-2.74c-0.73-1.08-1.89-1.05-3.01-1.13C40.86,12.63,40.76,12.56,40.68,12.46z"/>
		<path fill="#3E3E3D" d="M43.36,60.74c0.06-0.4,0.12-0.8,0.18-1.2c0.31-0.36,0.74-0.45,1.17-0.5c3.57-0.41,6.83-1.61,9.79-3.65
			c0.26-0.18,0.54-0.33,0.85-0.4c0.34-0.03,0.76-0.26,0.94,0.2c0.14,0.35-0.22,0.57-0.44,0.78c-0.81,0.72-1.83,1.11-2.73,1.68
			c-0.29,0.58-0.85,0.76-1.4,0.99c-2.51,1.03-5.06,1.85-7.81,1.9C43.73,60.53,43.55,60.66,43.36,60.74z"/>
		<path fill="#3E3E3D" d="M40.68,12.46c0.08,0,0.16,0,0.24,0c0.48,0.76,0.03,1.1-0.61,1.37c-3.6,0.5-7.02,1.5-10.07,3.55
			c-0.2,0.13-0.43,0.21-0.67,0.22c-0.86-0.21-0.8-0.63-0.21-1.09c0.61-0.48,1.23-0.95,1.99-1.18c0.94-1.14,2.4-1.37,3.64-1.83
			C36.8,12.83,38.72,12.43,40.68,12.46z"/>
		<path fill="#3E3E3D" d="M40.9,59.87c0,0.29,0,0.58-0.01,0.87c-0.91-0.39-1.91-0.18-2.83-0.47c-3.68-0.81-7.02-2.33-10-4.64
			c-0.06-0.05-0.13-0.1-0.17-0.16c-0.21-0.27-0.7-0.46-0.56-0.83c0.17-0.47,0.68-0.21,1.05-0.23c1.99,1.24,3.9,2.59,6.13,3.41
			c1.58,0.58,3.18,1.03,4.85,1.19C40,59.07,40.65,59.11,40.9,59.87z"/>
		<path fill="#363635" d="M64.32,40.9c0.02-0.15,0.04-0.3,0.06-0.45c0.12-0.4-0.19-0.86,0.18-1.22c0.01-0.08,0.02-0.16,0.03-0.25
			c0.19-1.3,0.11-2.6,0.14-3.91c0.14-0.42,0.44-0.5,0.82-0.39c-0.23,0.78-0.61,1.47-0.02,2.38c0.3,0.47,0.1,1.44-0.24,2.09
			c-0.09,0.18-0.36,0.26-0.23,0.54c0.99,2.25-0.13,4.25-0.88,6.22c-0.58,1.52-1.19,3.13-2.45,4.31c-0.35-0.46,0.01-0.82,0.21-1.17
			c0.31-0.54,0.56-1.13,0.9-1.65c0.47-0.71,0.35-1.28-0.25-1.81C63.08,43.99,63.68,42.44,64.32,40.9z"/>
		<path fill="#363636" d="M65.56,34.69c-0.23,0.08-0.46,0.16-0.69,0.24c-0.24-0.16-0.32-0.41-0.38-0.67
			c-0.01-0.11,0.02-0.21,0.09-0.29c-0.01-0.08-0.01-0.16-0.02-0.24c-0.38-0.36,0.08-0.84-0.19-1.21c-0.02-0.15-0.04-0.3-0.06-0.46
			c-0.8-1.78-1.23-3.69-2.01-5.48c-0.02-0.11-0.03-0.22-0.02-0.34c0.1-0.4,0.44-0.59,0.73-0.83c0.05-0.02,0.1-0.04,0.15-0.06
			c1.36,1.46,1.65,3.37,2.11,5.18c0.2,0.8,0.72,1.76-0.35,2.47c-0.18,0.12-0.13,0.56,0.21,0.68C65.66,33.88,65.54,34.31,65.56,34.69
			z"/>
		<path fill="#3C3B3A" d="M28.24,54.61c-0.24,0.29-0.51-0.1-0.9,0.09c1.41,1.28,2.86,2.38,4.55,3.16c2.01,0.93,4.04,1.78,6.17,2.4
			c-1.92,0.01-3.58-0.88-5.29-1.58c-3.17-1.3-5.71-3.48-8.06-5.91c-0.17-0.18-0.27-0.38-0.28-0.63c-0.14-0.19-0.27-0.38-0.42-0.55
			c-0.7-0.8-0.24-0.97,0.53-0.97c0.97,0.77,1.74,1.75,2.66,2.58C27.55,53.66,28.16,53.93,28.24,54.61z"/>
		<path fill="#3D3C3A" d="M31.36,15.32c-0.61,0.42-1.23,0.83-1.84,1.25c-0.39,0.27-0.52,0.56-0.07,0.9
			c-0.07,0.75-0.78,0.92-1.22,1.32c-0.36,0.32-0.69,0.65-1.03,0.99c-0.92,0.92-1.88,1.78-2.65,2.84c-0.22,0.3-0.42,0.69-0.91,0.66
			c-0.85-0.32-0.48-0.8-0.17-1.27c1.07-1.79,2.68-3.08,4.19-4.45c0.87-0.79,1.91-1.38,2.86-2.07C30.78,15.31,31.02,15.1,31.36,15.32
			z"/>
		<path fill="#3D3C3B" d="M53.12,57.64c0.52-0.68,1.34-0.92,2.02-1.36c0.4-0.26,0.78-0.52,1.01-0.95c-0.2-0.35-0.51,0.02-0.72-0.12
			c0.01-0.51,0.42-0.75,0.7-1.09c1.15-1.03,2.47-1.9,3.24-3.31c0.18-0.26,0.41-0.44,0.75-0.42c0.39,0.13,0.92,0.14,0.66,0.81
			c-1.91,2.44-3.99,4.69-6.77,6.19C53.72,57.53,53.45,57.65,53.12,57.64z"/>
		<path fill="#363636" d="M20.11,40.91c0.01,0.08,0.02,0.16,0.03,0.24c0.65,1.35,1.11,2.76,1.36,4.23
			c-0.51,0.87-0.13,1.63,0.25,2.41c0.22,0.46,0.72,0.89,0.27,1.48c-1.38-1.6-1.91-3.6-2.59-5.53c-0.21-0.59-0.34-1.22-0.47-1.83
			c-0.16-0.73-0.01-1.28,0.91-1.25C20.02,40.68,20.04,40.82,20.11,40.91z"/>
		<path fill="#363636" d="M59.34,20.35c-1.62-1.49-3.2-3.05-5.02-4.3c-0.13-0.13-0.39-0.2-0.24-0.48c1.49,0.27,2.45,1.41,3.54,2.27
			c2.22,1.77,3.71,4.18,5.27,6.51c0.2,0.3,0.31,0.64,0.28,1.02l0,0c-0.76,0.01-0.93-0.65-1.21-1.12
			C61.16,22.89,60.06,21.75,59.34,20.35z"/>
		<path fill="#393938" d="M23.46,22.02c-0.1,0.44-0.3,0.9,0.24,1.2c0.12,0.21,0.03,0.4-0.05,0.59c-0.17,0.32-0.39,0.61-0.55,0.94
			c-0.15,0.29-0.32,0.57-0.49,0.85c-0.43,0.72-0.72,1.51-1.05,2.28c-0.18,0.43-0.3,0.93-0.88,1.04c-0.5-0.03-0.87-0.19-0.59-0.77
			c0.14-0.28,0.05-0.61,0.24-0.87C21.35,25.5,21.96,23.5,23.46,22.02z"/>
		<path fill="#393938" d="M22.03,49.27c-0.01-0.96-0.84-1.58-1.05-2.48c-0.13-0.58-0.16-0.99,0.34-1.34
			c0.92,0.36,0.79,1.43,1.38,2.02c0.41,0.71,0.85,1.41,1.3,2.09c0.22,0.34,0.6,0.65,0.43,1.15c-0.29,0.16-0.96,0.15-0.34,0.73
			c0.2,0.19,0.34,0.41,0.34,0.69C23.27,51.48,23.03,50.06,22.03,49.27z"/>
		<path fill="#393938" d="M60.78,51.18c0.04-0.52-0.53-0.4-0.71-0.69c0-0.05,0-0.1,0-0.15c0.05-0.32,0.24-0.57,0.4-0.83
			c0.51-0.85,1.17-1.61,1.46-2.58c0.22-0.45,0.19-1.05,0.81-1.24c1.04-0.01,1.05,0.5,0.65,1.26c-0.57,1.09-1.1,2.19-1.65,3.28
			C61.42,50.54,61.1,50.86,60.78,51.18z"/>
		<path fill="#747474" d="M31.36,3.62c1.35-0.32,2.71-0.64,4.06-0.96c0.36-0.28,0.84,0.06,1.2-0.24l0,0
			c0.69-0.32,1.46,0.08,2.16-0.24c0.08,0,0.16,0,0.24,0c2.15-0.19,4.31-0.19,6.46,0l0,0c0.53,0.32,1.15-0.07,1.68,0.23
			c0.16,0,0.32,0,0.47,0.01c0.36,0.28,0.84-0.05,1.2,0.23c0.2,0.01,0.38,0.05,0.49,0.23c-0.24,0.18-0.49,0.16-0.75,0.02
			c-2.17-0.21-4.32-0.53-6.51-0.5c-3.39,0.04-6.71,0.51-9.97,1.45c-0.24,0.15-0.48,0.15-0.72,0C31.36,3.78,31.36,3.7,31.36,3.62z"/>
		<path fill="#373636" d="M20.35,27.28c0.4,0.4-0.86,1.37,0.5,1.45c0.39,1.17-0.26,2.11-0.7,3.09c-0.01,0.08-0.02,0.16-0.04,0.24
			c-0.07,0.09-0.09,0.23-0.23,0.25c-0.82,0.1-1.12-0.32-0.94-1.05C19.29,29.89,19.47,28.46,20.35,27.28z"/>
		<path fill="#484848" d="M64.35,9.84c0.28,0.53,0.8,0.8,1.22,1.18c0.31,0.4,0.63,0.8,0.94,1.2c-1.1-0.3-1.63-1.33-2.44-1.99
			c-2.17-1.75-4.53-3.16-7-4.41c-0.14-0.07-0.24-0.19-0.36-0.29c0.16-0.14,0.32-0.15,0.48,0c1.27,0.64,2.54,1.28,3.81,1.92
			c0.49,0.3,1.01,0.56,1.44,0.96C62.95,9.04,63.59,9.52,64.35,9.84z"/>
		<path fill="#363636" d="M9.35,46.16c-0.48-0.55-0.24-1.37-0.71-1.92c-0.55-3-1.09-6-0.96-9.08c0.08,0,0.16,0,0.24,0
			c0.15,3.11,0.43,6.21,1.23,9.24C9.3,44.99,9.37,45.57,9.35,46.16z"/>
		<path fill="#363636" d="M19.86,39.34c-0.01,0.21-0.02,0.42-0.02,0.63c-0.84,0.37-1.24,0.24-0.95-0.79c0.07-0.26,0.1-0.59,0-0.82
			c-0.41-0.87,0.09-1.33,0.72-1.75c0.03,0.08,0.05,0.15,0.08,0.23c0.21,0.28,0.28,0.61,0.28,0.95
			C20.05,38.32,19.58,38.8,19.86,39.34z"/>
		<path fill="#363636" d="M8.15,28.71c0.54,0.45-0.07,1.22,0.48,1.67c-0.08,0.97-0.17,1.94-0.25,2.91c-0.02,0.29-0.21,0.4-0.46,0.44
			C7.84,32.05,7.97,30.38,8.15,28.71z"/>
		<path fill="#656565" d="M48.56,2.91c0.25-0.01,0.5-0.01,0.75-0.02C49.54,2.89,49.77,2.9,50,2.9c1.2,0.31,2.45,0.46,3.6,0.95
			c0,0,0,0,0,0c0.72,0.54,1.76,0.48,2.39,1.2C53.51,4.34,51.03,3.63,48.56,2.91z"/>
		<path fill="#404040" d="M9.83,22.74c0.16-0.16,0.32-0.32,0.48-0.48c-0.01,0.42,0.22,0.36,0.48,0.23c0.07,0.05,0.09,0.11,0.07,0.16
			c-0.02,0.06-0.04,0.08-0.07,0.08c-0.53,0.8-0.51,1.8-0.96,2.63c-0.1,0.14-0.21,0.31-0.42,0.25c-0.13-0.03-0.11-0.15-0.06-0.25
			C9.18,24.43,9.81,23.64,9.83,22.74z"/>
		<path fill="#717171" d="M23.46,7.2C24.1,6.8,24.74,6.4,25.38,6c0.08,0,0.16,0,0.24,0c0.24-0.15,0.47-0.18,0.71,0
			c-1.6,0.86-3.01,2.06-4.77,2.64C21.99,7.9,22.96,7.86,23.46,7.2z"/>
		<path fill="#4B4B4B" d="M31.36,3.86c0.24,0,0.48,0,0.72,0c-1.85,0.68-3.61,1.61-5.52,2.13c0.22-0.75,1-0.6,1.48-0.92
			C29.14,4.66,30.25,4.26,31.36,3.86z"/>
		<path fill="#696969" d="M18.91,10.78c0-0.08,0-0.16,0-0.24c0.56-0.48,1.12-0.96,1.67-1.44c0.32-0.16,0.65-0.31,0.97-0.47
			c-0.46,1.09-1.52,1.52-2.39,2.15C19.08,10.89,19,10.88,18.91,10.78z"/>
		<path fill="#454545" d="M10.3,49.76c0-0.16,0-0.33,0.01-0.49c0.64,1.35,1.28,2.71,1.92,4.06c0,0-0.11,0-0.11,0s-0.11,0-0.11,0
			C11.41,52.15,10.71,51.02,10.3,49.76z"/>
		<path fill="#3B3B3B" d="M74.41,24.89c0.24,0.32,0.48,0.64,0.72,0.96c0.34,0.41,0.51,0.9,0.46,1.4c-0.06,0.66-0.31,0-0.46,0.03
			C74.84,26.5,74.47,25.74,74.41,24.89z"/>
		<path fill="#373636" d="M19.84,33c0.01,0.21,0.01,0.42,0.02,0.62c-0.16,0.27-0.04,0.6-0.2,0.87c-0.18,0.09-0.35,0.1-0.5-0.05
			C18.68,33.07,18.79,32.85,19.84,33z"/>
		<path fill="#3F3F3F" d="M9.35,25.36c0.16,0.27,0.32,0.02,0.48,0c-0.16,0.56-0.32,1.12-0.48,1.67c-0.15-0.05-0.49,0.62-0.43-0.02
			C8.97,26.48,8.96,25.85,9.35,25.36z"/>
		<path fill="#393939" d="M19.16,34.45c0.15,0,0.3,0,0.45,0c0.22,0.19,0.31,0.44,0.33,0.72c0.02,0.35-0.05,0.68-0.26,0.97
			c0,0-0.08-0.03-0.08-0.03C18.88,35.7,18.75,35.15,19.16,34.45z"/>
		<path fill="#3F3F3F" d="M10.79,22.74c0-0.08,0-0.16,0-0.25c0.35-0.95,0.64-1.92,1.44-2.63C11.9,20.9,11.41,21.86,10.79,22.74z"/>
		<path fill="#3F3F3F" d="M71.06,17.48c0,0.16,0,0.32,0.01,0.47c-0.71-0.69-1.25-1.5-1.67-2.39C70.21,15.98,70.45,16.89,71.06,17.48
			z"/>
		<path fill="#484848" d="M68.67,14.13c0.08,0.16,0.17,0.32,0.25,0.47c0,0.08,0,0.16-0.01,0.24c-0.73-0.64-1.59-1.16-1.92-2.15
			C67.55,13.18,68.11,13.66,68.67,14.13z"/>
		<path fill="#5F5F5F" d="M17.01,12.46c0.32-0.16,0.56-0.39,0.72-0.72c0.08-0.08,0.16-0.16,0.24-0.24c0.09,0.07,0.23,0.09,0.24,0.24
			c-0.46,0.66-1.03,1.2-1.66,1.68c-0.09,0-0.17-0.01-0.26-0.01C16.52,13.09,16.76,12.78,17.01,12.46z"/>
		<path fill="#7B7B7B" d="M28.03,5.06c-0.49,0.31-0.99,0.62-1.48,0.92c-0.08,0-0.16,0.01-0.23,0.01c-0.24,0-0.47,0-0.71,0
			C26.31,5.41,27.13,5.13,28.03,5.06z"/>
		<path fill="#FD8B06" d="M20.11,40.91c-0.08-0.08-0.15-0.17-0.23-0.25c0.01-0.24,0.02-0.48,0.03-0.72
			c0.31,0.08,0.77-0.16,0.88,0.36C20.9,40.83,20.33,40.69,20.11,40.91z"/>
		<path fill="#3A3A39" d="M54.08,15.57c0.08,0.16,0.16,0.32,0.24,0.48c-0.69-0.21-1.28-0.56-1.67-1.19
			C53.22,14.89,53.56,15.42,54.08,15.57z"/>
		<path fill="#FD8A06" d="M19.88,32.31c0.08-0.08,0.15-0.17,0.23-0.25c0.06,0.35,1.05,0.88-0.19,0.97
			C19.9,32.79,19.89,32.55,19.88,32.31z"/>
		<path fill="#666666" d="M18.2,11.74c-0.08-0.08-0.16-0.16-0.24-0.24c0.32-0.24,0.64-0.48,0.95-0.72c0.09,0,0.17,0.01,0.26,0.01
			C18.93,11.19,18.61,11.51,18.2,11.74z"/>
		<path fill="#656565" d="M57.19,5.53c-0.16,0-0.32,0-0.48,0c-0.24-0.16-0.48-0.31-0.72-0.47c0.4,0.08,0.8,0.16,1.19,0.24
			C57.19,5.37,57.19,5.45,57.19,5.53z"/>
		<path fill="#8D8D8D" d="M45.47,2.18c-2.15,0-4.31,0-6.46,0c1.53-0.53,3.1-0.14,4.65-0.22C44.25,1.93,44.92,1.71,45.47,2.18z"/>
		<path fill="#878787" d="M53.6,3.86C52.38,3.62,51.16,3.39,50,2.9c0.75-0.15,1.43,0.3,2.16,0.23C52.56,3.55,53.28,3.3,53.6,3.86z"
			/>
		<path fill="#8D8D8D" d="M38.77,2.18c-0.68,0.45-1.44,0.14-2.16,0.24C37.29,1.94,38.06,2.28,38.77,2.18z"/>
		<path fill="#878787" d="M47.14,2.42c-0.56-0.08-1.17,0.2-1.68-0.23C46.02,2.27,46.64,1.96,47.14,2.42z"/>
		<path fill="#878787" d="M48.82,2.66c-0.41-0.05-0.86,0.14-1.2-0.23C48.02,2.47,48.48,2.26,48.82,2.66z"/>
		<path fill="#8D8D8D" d="M36.62,2.42c-0.34,0.38-0.79,0.18-1.2,0.24c0-0.08,0-0.16,0-0.24C35.82,2.42,36.22,2.42,36.62,2.42z"/>
		<path fill="#333333" d="M75.96,27.9c0.15,0.37,0.18,0.61,0.01,0.86C75.79,28.5,75.82,28.26,75.96,27.9z"/>
		<path fill="#797979" d="M62.43,8.4C61.86,8.23,61.37,7.92,61,7.45c0.71,0.06,1.19,0.52,1.69,0.95C62.6,8.4,62.52,8.4,62.43,8.4z"
			/>
		<path fill="#373737" d="M4.57,52.62c0,5.49,0,10.99,0,16.48c0,0.28-0.01,0.56,0,0.84c0,0.39-0.18,0.59-0.57,0.59
			c-0.38,0.01-0.61-0.14-0.62-0.55c0-0.28-0.01-0.56-0.01-0.84c0-11.11,0-22.21,0-33.32c0-0.24,0.01-0.48,0-0.72
			C3.36,34.68,3.54,34.44,4,34.46c0.41,0.01,0.56,0.22,0.56,0.61c0,0.28,0,0.56,0,0.84C4.57,41.48,4.57,47.05,4.57,52.62z"/>
		<path fill="#FD8E0D" d="M27.02,19.62c0.64-0.91,1.66-1.38,2.42-2.14c2.85-1.82,5.88-3.19,9.26-3.69c0.51-0.08,1.01-0.13,1.52-0.2
			c0.33-0.07,0.67-0.04,0.98-0.2c0.67-0.1,1.34-0.08,2.02-0.02c0.25,0.09,0.5,0.18,0.78,0.17c4.99,0.45,9.31,2.47,13.14,5.63
			c0.85,0.45,1.36,1.29,2.09,1.87c0.27,0.21,0.33,0.52,0.15,0.85c-0.3,0.32-0.62,0.42-1,0.13c-0.49-0.31-0.89-0.7-1.2-1.2
			c-0.18-0.3-0.41-0.55-0.72-0.72c-0.54-0.33-0.89-0.88-1.44-1.2c-2.98-2.02-6.16-3.4-9.79-3.87c-5.03-0.65-9.68,0.29-14.11,2.66
			c-0.52,0.28-0.77,0.95-1.45,0.97c-0.59,0.32-1.12,0.72-1.59,1.21C27.61,20.39,27.2,20.39,27.02,19.62z"/>
		<path fill="#FD8E0E" d="M28.24,54.61c-0.42-0.41-0.84-0.83-1.25-1.24c0.09-0.85,0.42-1.02,1.04-0.37c0.13,0.14,0.3,0.23,0.46,0.34
			c0.08,0.08,0.16,0.16,0.24,0.24c0.33,0.22,0.62,0.5,0.96,0.72c2.3,1.58,4.76,2.83,7.52,3.41c0.73,0.15,1.47,0.36,2.21,0.39
			c1.21,0.05,1.76,0.54,1.49,1.78c-0.71-0.78-1.71-0.49-2.58-0.66C34.58,58.5,31.26,56.89,28.24,54.61z"/>
		<path fill="#FD8E0E" d="M56.31,54.33c-0.29,0.29-0.58,0.58-0.87,0.87c-2.89,1.92-5.96,3.43-9.42,3.99
			c-0.82,0.13-1.64,0.23-2.47,0.35c-0.44-0.81-0.21-1.31,0.7-1.41c3.97-0.43,7.65-1.61,10.84-4.1c0.12-0.1,0.28-0.15,0.42-0.22
			C56.08,53.52,56.18,53.95,56.31,54.33z"/>
		<path fill="#FD8C09" d="M28.49,53.33c-0.5,0.03-1.02-1.04-1.5,0.03c-0.99-0.75-1.72-1.76-2.57-2.65c-0.65-1.03-1.29-2.07-1.94-3.1
			c0.19-0.73,0.54-0.84,1.02-0.23c0.17,0.21,0.27,0.48,0.44,0.7C25.29,49.97,26.91,51.63,28.49,53.33z"/>
		<path fill="#FD8A06" d="M20.14,31.82c0-1.08,0.59-2.03,0.7-3.09c0.61-1.09,0.91-2.33,1.64-3.37c0.59,0.03,0.43-0.43,0.48-0.74
			c-0.02-0.42,0.33-0.62,0.54-0.9c0.39-0.01,0.6,0.32,0.91,0.46c-1.19,2.3-2.4,4.59-3.33,7.02C20.9,31.66,20.43,31.57,20.14,31.82z"
			/>
		<path fill="#FD8B06" d="M23.94,48.07c-0.52-0.04-0.57-1.56-1.46-0.47c-0.39-0.72-0.78-1.44-1.16-2.16
			c-0.34-1.45-1.1-2.78-1.17-4.3c0.56,0.19,0.98,0.58,1.17,1.11C22.05,44.26,23.13,46.11,23.94,48.07z"/>
		<path fill="#FD8C0A" d="M24.42,24.17c-0.62,0.47-0.68-0.17-0.91-0.46c0.07-0.16,0.13-0.33,0.2-0.49c1.06-1.24,1.97-2.63,3.31-3.61
			c0.36,0.46,0.7,0.51,1.11,0.02c0.4-0.48,0.87-0.9,1.55-0.96C27.81,20.39,25.94,22.11,24.42,24.17z"/>
		<path fill="#FD8A06" d="M62.4,26.32c0.91,1.82,1.66,3.7,1.92,5.74c-0.33-0.04-0.72,0.1-0.91-0.37c-0.71-1.8-1.44-3.58-2.16-5.37
			C61.64,26.18,62.02,26.06,62.4,26.32z"/>
		<path fill="#FD8C08" d="M62.4,26.32c-0.38,0.07-0.76,0.32-1.14,0c-0.96-1.43-1.91-2.87-2.87-4.3c0.35,0.04,0.66-0.07,0.95-0.24
			c0.25-0.03,0.49,0.05,0.64,0.23c1.02,1.24,2.07,2.46,2.45,4.08C62.43,26.18,62.42,26.25,62.4,26.32z"/>
		<path fill="#FC8B07" d="M62.74,45.68c-0.19,0.47-0.38,0.94-0.57,1.42c-0.38,0.01-0.6-0.32-0.91-0.46
			c0.72-1.72,1.46-3.44,2.15-5.18c0.18-0.46,0.49-0.57,0.91-0.56C64.23,42.64,63.36,44.12,62.74,45.68z"/>
		<path fill="#FD8C08" d="M61.26,46.64c0.62-0.47,0.68,0.17,0.91,0.46c-0.4,0.97-0.95,1.85-1.63,2.65c-0.55-0.08-0.49,0.3-0.49,0.64
			c0,0,0.02,0.09,0.02,0.09c-0.26,0.05-0.37,0.26-0.5,0.45c-0.35,0.08-0.64-0.08-0.94-0.23C59.5,49.35,60.38,48,61.26,46.64z"/>
		<path fill="#FC8D0C" d="M58.62,50.7c0.41-0.32,0.68-0.07,0.94,0.23c-0.69,1.51-2.11,2.31-3.25,3.39c-0.3-0.12-0.4-0.55-0.8-0.51
			c0.31-0.49,0.7-0.89,1.2-1.2c0.57-0.39,1.05-0.86,1.43-1.43C58.24,50.95,58.4,50.8,58.62,50.7z"/>
		<path fill="#FD8B06" d="M19.67,37.79c0-0.32,0-0.63,0-0.95c0.56,0.08,1.04,0.34,1.06,0.93c0.01,0.48-0.24,0.92-0.83,0.98
			C19.6,38.49,19.89,38.08,19.67,37.79z"/>
		<path fill="#FD8A06" d="M19.68,36.14c0-0.32,0-0.64,0-0.96c0.18-0.21-0.03-0.54,0.22-0.73c0.58-0.05,0.71,0.27,0.7,0.79
			C20.6,35.88,20.29,36.15,19.68,36.14z"/>
		<path fill="#F19A35" d="M64.62,34.16c0.08,0.26,0.17,0.51,0.25,0.77c-0.17,1.35,0.22,2.73-0.27,4.05c0,0-0.03-0.03-0.03-0.03
			c-0.17-0.31-0.22-0.61,0.01-0.92c0-1.03,0-2.07,0-3.1C64.39,34.66,64.38,34.4,64.62,34.16z"/>
		<path fill="#FC8B07" d="M64.57,39.23c0.03,0.42,0.11,0.85-0.18,1.22c-0.18-0.36-0.87-0.41-0.65-0.98
			C63.87,39.09,64.27,39.28,64.57,39.23z"/>
		<path fill="#FD8A06" d="M64.38,32.52c0.28,0.37,0.23,0.79,0.19,1.21C62.49,33.64,64.78,32.87,64.38,32.52z"/>
		<path fill="#FD8C08" d="M58.15,51.18c-0.2,0.76-0.68,1.23-1.43,1.43C57.09,52.04,57.57,51.57,58.15,51.18z"/>
		<path fill="#FD8A06" d="M64.62,34.16c-0.02,0.26-0.03,0.52-0.05,0.78c-0.26-0.03-0.6,0.04-0.63-0.33
			c-0.04-0.43,0.26-0.59,0.65-0.64C64.63,34.02,64.64,34.09,64.62,34.16z"/>
		<path fill="#FD8C08" d="M55.04,18.91c0.72,0.11,1.05,0.69,1.44,1.2C55.76,19.99,55.42,19.42,55.04,18.91z"/>
		<path fill="#FC8B07" d="M64.57,38.03c0,0.31,0,0.61-0.01,0.92c-0.26-0.11-0.53-0.28-0.53-0.57
			C64.04,38.11,64.33,38.06,64.57,38.03z"/>
		<path fill="#F19D3D" d="M19.67,37.79c0.31,0.26,0.16,0.64,0.23,0.97c-0.02,0.2-0.03,0.39-0.05,0.59
			C19.52,38.86,19.65,38.32,19.67,37.79z"/>
		<path fill="#F19D3B" d="M19.9,34.45c-0.04,0.25,0.03,0.54-0.22,0.73c-0.02-0.24-0.05-0.48-0.07-0.73
			c0.09-0.27,0.17-0.55,0.26-0.82C19.87,33.9,19.88,34.17,19.9,34.45z"/>
		<path fill="#FD8C09" d="M29.68,54.29c-0.48-0.02-0.75-0.33-0.96-0.72C29.21,53.59,29.47,53.91,29.68,54.29z"/>
		<path fill="#FD8C08" d="M56.47,20.11c0.46,0.02,0.7,0.26,0.72,0.72C56.87,20.67,56.63,20.43,56.47,20.11z"/>
		<path fill="#3A3A39" d="M62.43,26.1c-0.74-1.14-1.46-2.29-2.22-3.41c-0.23-0.34-0.58-0.61-0.87-0.91
			c-0.42-1.13-1.55-1.66-2.2-2.61c0.82,0.01,1.07,0.8,1.63,1.18c0.18,0.12,0.41,0.69,0.58-0.01c1.31,1.11,2.09,2.64,3.04,4.02
			c0.25,0.36,0.5,0.69,0.79,1C63.16,25.85,62.74,25.92,62.43,26.1z"/>
		<path fill="#434343" d="M41.1,13.63c-0.29-0.01-0.58-0.03-0.87-0.04c0.54-0.18,0.82-0.53,0.7-1.13c0.2,0,0.4,0,0.59,0
			c0.99-0.02,2.07-0.22,2.48,1.09c-0.21,0.03-0.41,0.06-0.62,0.09C42.62,13.47,41.86,13.47,41.1,13.63z"/>
		<path fill="#FD8C0A" d="M22.96,24.61c0.17,0.3,0.74,0.48,0.35,0.96c-0.4,0.5-0.56-0.11-0.83-0.22
			C22.65,25.11,22.8,24.86,22.96,24.61z"/>
		<path fill="#FC8D0C" d="M60.04,50.4c0.06-0.35-0.79-0.35-0.33-0.86c0.42-0.46,0.56,0.09,0.82,0.22
			C60.44,50.02,60.34,50.28,60.04,50.4z"/>
		<path fill="#F6911B" d="M41.1,13.63c0.76-0.3,1.52-0.29,2.28,0C42.62,13.63,41.86,13.63,41.1,13.63z"/>
	</g>
</g>
</svg>
