<?xml version="1.0" encoding="iso-8859-1"?>
<!-- Generator: Adobe Illustrator 19.0.0, SVG Export Plug-In . SVG Version: 6.00 Build 0)  -->
<svg version="1.1" id="Capa_1" xmlns="http://www.w3.org/2000/svg" xmlns:xlink="http://www.w3.org/1999/xlink" x="0px" y="0px"
	 viewBox="0 0 398 398" style="enable-background:new 0 0 398 398;" xml:space="preserve">
<g>
	<g>
		<path d="M285,52H114c-5.5,0-10,4.5-10,10v119c0,5.5,4.5,10,10,10h171c5.5,0,10-4.5,10-10V62C295,56.5,290.5,52,285,52z M274,171
			H124V72h150V171z"/>
	</g>
</g>
<g>
	<g>
		<path d="M373.5,96H346V46.4C346,20.9,325.3,0,299.8,0H98.2C72.7,0,52,21,52,46.4V96H24.5C19,96,14,100.4,14,105.9v85.3
			c0,5.5,4.9,9.8,10.5,9.8H52v93.7C52,351.5,98.2,398,155,398h88c56.8,0,103-46.5,103-103.3V201h27.5c5.5,0,10.5-4.2,10.5-9.8v-85.3
			C384,100.4,379.1,96,373.5,96z M52,181H34v-65h18V181z M326.1,294.7H326c0,45.8-37.2,83.3-83,83.3h-88c-45.8,0-83-37.5-83-83.3
			V46.5C72,32,83.7,20.2,98.2,20.1h201.7c14.5,0.1,26.2,11.9,26.2,26.4V294.7z M364,181h-18v-65h18V181z"/>
	</g>
</g>
<g>
</g>
<g>
</g>
<g>
</g>
<g>
</g>
<g>
</g>
<g>
</g>
<g>
</g>
<g>
</g>
<g>
</g>
<g>
</g>
<g>
</g>
<g>
</g>
<g>
</g>
<g>
</g>
<g>
</g>
</svg>
