<svg width="434" height="565" viewBox="0 0 434 565" fill="none" xmlns="http://www.w3.org/2000/svg">
<rect x="16.3154" y="84.842" width="401.368" height="270.842" fill="#51504F"/>
<circle cx="217" cy="363.842" r="200.684" fill="#51504F"/>
<circle cx="97.8944" cy="81.5789" r="81.5789" fill="#51504F"/>
<path d="M417.684 81.5789C417.684 126.634 381.16 163.158 336.105 163.158C291.051 163.158 254.526 126.634 254.526 81.5789C254.526 36.5241 291.051 0 336.105 0C381.16 0 417.684 36.5241 417.684 81.5789Z" fill="#51504F"/>
<rect x="94.6309" width="241.474" height="84.8421" fill="#51504F"/>
<mask id="path-6-inside-1" fill="white">
<rect x="48.9473" y="84.842" width="332.842" height="192.526" rx="5"/>
</mask>
<rect x="48.9473" y="84.842" width="332.842" height="192.526" rx="5" fill="#51514F" stroke="#3D3D3C" stroke-width="12" mask="url(#path-6-inside-1)"/>
<rect x="70.5264" y="108.427" width="289.684" height="116.737" rx="3" fill="#282828" stroke="#393939" stroke-width="4"/>
<path d="M192.528 112.827L255.349 113.138L150.107 220.538L87.1756 220.538L192.528 112.827Z" fill="#FF8900" fill-opacity="0.25"/>
<path d="M192.528 112.827L255.349 113.138L150.107 220.538L87.1756 220.538L192.528 112.827Z" fill="#FF8900" fill-opacity="0.25"/>
<mask id="path-9-inside-2" fill="white">
<path d="M0 133.526C0 131.869 1.34315 130.526 3 130.526H16.3158V215.368H3C1.34315 215.368 0 214.025 0 212.368V133.526Z"/>
</mask>
<path d="M0 133.526C0 131.869 1.34315 130.526 3 130.526H16.3158V215.368H3C1.34315 215.368 0 214.025 0 212.368V133.526Z" fill="#393939" stroke="#352E2C" stroke-width="8" mask="url(#path-9-inside-2)"/>
<rect x="3.2627" y="140.316" width="6.52632" height="9.78947" fill="#676767"/>
<rect x="3.2627" y="153.368" width="6.52632" height="6.52632" fill="#676767"/>
<mask id="path-12-inside-3" fill="white">
<path d="M434 133.526C434 131.869 432.657 130.526 431 130.526H417.684V215.368H431C432.657 215.368 434 214.025 434 212.368V133.526Z"/>
</mask>
<path d="M434 133.526C434 131.869 432.657 130.526 431 130.526H417.684V215.368H431C432.657 215.368 434 214.025 434 212.368V133.526Z" fill="#393939" stroke="#352E2C" stroke-width="8" mask="url(#path-12-inside-3)"/>
<rect width="6.52632" height="9.78947" transform="matrix(-1 0 0 1 427.474 140.316)" fill="#676767"/>
<rect width="6.52632" height="6.52632" transform="matrix(-1 0 0 1 427.474 153.368)" fill="#676767"/>
</svg>
